<svg aria-hidden="true" style="position: absolute; width: 0; height: 0; overflow: hidden;" version="1.1" xmlns="http://www.w3.org/2000/svg" xmlns:xlink="http://www.w3.org/1999/xlink">
<defs>
<symbol id="icon-arrow" viewBox="0 0 36 32">
<path d="M1.062 17.414c-0.781-0.781-0.781-2.047 0-2.828l12.728-12.728c0.781-0.781 2.047-0.781 2.828 0s0.781 2.047 0 2.828l-11.314 11.314 11.314 11.314c0.781 0.781 0.781 2.047 0 2.828s-2.047 0.781-2.828 0l-12.728-12.728zM36 18h-33.524v-4h33.524v4z"></path>
</symbol>
<symbol id="icon-facebook" viewBox="0 0 32 32">
<path d="M0 16c0-8.837 7.163-16 16-16s16 7.163 16 16c0 8.837-7.163 16-16 16s-16-7.163-16-16zM17.668 25.408v-8.705h2.403l0.319-3h-2.721l0.004-1.501c0-0.782 0.074-1.202 1.198-1.202h1.502v-3h-2.403c-2.887 0-3.903 1.455-3.903 3.902v1.801h-1.799v3h1.799v8.705h3.602z"></path>
</symbol>
<symbol id="icon-instagram" viewBox="0 0 32 32">
<path d="M0 16c0-8.837 7.163-16 16-16s16 7.163 16 16c0 8.837-7.163 16-16 16s-16-7.163-16-16zM16.001 7.467c-2.317 0-2.608 0.010-3.519 0.052-0.909 0.042-1.528 0.185-2.071 0.396-0.561 0.218-1.037 0.51-1.512 0.984s-0.766 0.95-0.985 1.511c-0.212 0.543-0.356 1.163-0.396 2.071-0.041 0.91-0.051 1.201-0.051 3.519s0.010 2.607 0.052 3.518c0.042 0.909 0.186 1.529 0.396 2.071 0.218 0.561 0.51 1.037 0.984 1.512s0.95 0.767 1.511 0.985c0.543 0.211 1.163 0.355 2.072 0.396 0.91 0.041 1.201 0.052 3.518 0.052s2.608-0.010 3.518-0.052c0.908-0.042 1.529-0.185 2.072-0.396 0.561-0.218 1.036-0.51 1.511-0.985s0.766-0.95 0.985-1.512c0.21-0.543 0.354-1.163 0.396-2.071 0.041-0.91 0.052-1.2 0.052-3.518s-0.011-2.608-0.052-3.519c-0.043-0.909-0.187-1.529-0.396-2.071-0.219-0.561-0.51-1.037-0.985-1.512s-0.949-0.766-1.511-0.984c-0.544-0.211-1.164-0.355-2.073-0.396-0.91-0.041-1.2-0.052-3.518-0.052h0.003z"></path>
<path d="M15.235 9.005c0.227-0 0.481 0 0.766 0 2.278 0 2.548 0.008 3.448 0.049 0.832 0.038 1.284 0.177 1.584 0.294 0.398 0.155 0.682 0.34 0.981 0.638s0.484 0.583 0.639 0.981c0.117 0.3 0.256 0.752 0.294 1.584 0.041 0.899 0.050 1.17 0.050 3.447s-0.009 2.548-0.050 3.447c-0.038 0.832-0.177 1.284-0.294 1.584-0.155 0.398-0.34 0.682-0.639 0.98s-0.582 0.483-0.981 0.638c-0.3 0.117-0.752 0.256-1.584 0.294-0.9 0.041-1.17 0.050-3.448 0.050s-2.549-0.009-3.448-0.050c-0.832-0.038-1.284-0.177-1.585-0.294-0.398-0.155-0.683-0.34-0.981-0.638s-0.484-0.582-0.639-0.981c-0.117-0.3-0.256-0.752-0.294-1.584-0.041-0.9-0.049-1.17-0.049-3.449s0.008-2.548 0.049-3.447c0.038-0.832 0.177-1.284 0.294-1.584 0.155-0.398 0.34-0.683 0.639-0.981s0.583-0.484 0.981-0.639c0.301-0.117 0.753-0.256 1.585-0.294 0.787-0.036 1.092-0.046 2.683-0.048v0.002zM20.555 10.422c-0.565 0-1.024 0.458-1.024 1.024s0.459 1.024 1.024 1.024c0.565 0 1.024-0.459 1.024-1.024s-0.459-1.024-1.024-1.024zM16 11.618c-2.42 0-4.382 1.962-4.382 4.382s1.962 4.381 4.382 4.381c2.42 0 4.381-1.961 4.381-4.381s-1.961-4.382-4.381-4.382z"></path>
<path d="M16.001 13.155c1.571 0 2.845 1.273 2.845 2.844s-1.274 2.845-2.845 2.845c-1.571 0-2.845-1.274-2.845-2.845s1.273-2.844 2.845-2.844z"></path>
</symbol>
<symbol id="icon-logo" viewBox="0 0 75 32">
<path d="M4.076 7.397l-1.239-0.75c-0.777-0.473-1.332-0.938-1.663-1.394-0.326-0.462-0.489-0.992-0.489-1.59 0-0.897 0.31-1.625 0.929-2.185 0.625-0.56 1.435-0.84 2.429-0.84 0.951 0 1.823 0.266 2.617 0.799v1.851c-0.821-0.788-1.704-1.182-2.649-1.182-0.533 0-0.97 0.125-1.313 0.375-0.342 0.245-0.514 0.56-0.514 0.946 0 0.342 0.125 0.663 0.375 0.962s0.655 0.611 1.215 0.938l1.247 0.734c1.391 0.826 2.087 1.88 2.087 3.163 0 0.913-0.307 1.655-0.921 2.226-0.609 0.571-1.402 0.856-2.38 0.856-1.125 0-2.149-0.345-3.073-1.035v-2.071c0.88 1.114 1.899 1.671 3.057 1.671 0.511 0 0.935-0.141 1.272-0.424 0.342-0.288 0.514-0.647 0.514-1.076 0-0.696-0.5-1.353-1.5-1.973zM16.932 0.785h1.63v11.389h-1.63v-4.957h-6.399v4.957h-1.63v-11.389h1.63v4.924h6.399v-4.924zM26.674 0.622c1.761 0 3.226 0.557 4.394 1.671 1.174 1.114 1.761 2.511 1.761 4.19s-0.592 3.071-1.777 4.174c-1.179 1.098-2.668 1.647-4.467 1.647-1.717 0-3.149-0.549-4.296-1.647-1.141-1.103-1.712-2.484-1.712-4.141 0-1.701 0.576-3.109 1.728-4.223s2.609-1.671 4.37-1.671zM26.739 2.171c-1.304 0-2.378 0.408-3.22 1.223-0.837 0.815-1.255 1.856-1.255 3.122 0 1.228 0.421 2.25 1.264 3.065s1.897 1.223 3.163 1.223c1.272 0 2.332-0.416 3.179-1.247 0.853-0.832 1.28-1.867 1.28-3.106 0-1.207-0.427-2.22-1.28-3.041-0.848-0.826-1.891-1.239-3.13-1.239zM34.736 12.174v-11.405h3.611c1.087 0 1.954 0.293 2.601 0.88s0.97 1.375 0.97 2.364c0 0.663-0.166 1.25-0.497 1.761s-0.785 0.883-1.361 1.117c-0.576 0.228-1.402 0.342-2.478 0.342h-1.206v4.94h-1.639zM38.062 2.22h-1.687v3.562h1.785c0.663 0 1.174-0.155 1.533-0.465 0.359-0.315 0.538-0.764 0.538-1.345 0-1.168-0.723-1.753-2.169-1.753zM11.739 28.448c0 0.973-0.334 1.75-1.003 2.332-0.663 0.581-1.592 0.872-2.788 0.872h-6.53v-11.299h5.462c0.707 0 1.321 0.068 1.842 0.204 0.527 0.136 0.951 0.323 1.272 0.563 0.321 0.234 0.56 0.511 0.717 0.831s0.236 0.671 0.236 1.052c0 0.413-0.082 0.796-0.245 1.149-0.163 0.348-0.367 0.636-0.611 0.864-0.239 0.223-0.481 0.38-0.726 0.473 0.772 0.304 1.359 0.69 1.761 1.158 0.408 0.462 0.611 1.062 0.611 1.802zM7.761 23.606c0-0.544-0.179-0.905-0.538-1.084s-0.918-0.269-1.679-0.269h-0.717v2.706h0.734c0.777 0 1.337-0.090 1.679-0.269 0.348-0.179 0.522-0.541 0.522-1.084zM8.315 28.31c0-0.967-0.701-1.451-2.103-1.451h-1.386v2.894h1.386c1.402 0 2.103-0.481 2.103-1.443zM25.842 31.652h-3.489l-0.921-2.291h-4.908l-0.938 2.291h-3.489l4.997-11.299h3.766l4.981 11.299zM20.649 27.397l-1.655-4.125-1.671 4.125h3.326zM39.228 31.652h-4.158l-4.321-5.291v5.291h-3.408v-11.299h3.408v5.054l4.092-5.054h3.701l-4.206 5.291 4.891 6.008zM49.231 31.652h-8.519v-11.299h8.38v2.266h-4.973v2.071h4.745v2.274h-4.745v2.413h5.111v2.274zM62.462 31.652h-3.66l-0.889-2.005c-0.326-0.734-0.62-1.269-0.88-1.606-0.261-0.342-0.516-0.56-0.766-0.652-0.245-0.098-0.563-0.147-0.954-0.147h-0.383v4.41h-3.408v-11.299h5.796c0.935 0 1.701 0.19 2.299 0.571s1.027 0.842 1.288 1.386c0.266 0.544 0.399 1.060 0.399 1.549 0 0.571-0.111 1.054-0.334 1.451-0.217 0.391-0.448 0.677-0.693 0.856s-0.519 0.351-0.823 0.514c0.364 0.212 0.663 0.465 0.897 0.758 0.239 0.288 0.563 0.875 0.97 1.761l1.141 2.454zM57.831 23.924c0-0.522-0.171-0.886-0.514-1.092s-0.899-0.31-1.671-0.31h-0.717v2.723h0.734c0.831 0 1.399-0.090 1.704-0.269 0.31-0.185 0.465-0.535 0.465-1.052zM74.543 20.353l-4.426 6.122v5.177h-3.408v-5.111l-4.508-6.187h3.538l2.592 3.554 2.601-3.554h3.611z"></path>
</symbol>
</defs>
</svg>
